<?xml version="1.0" standalone="no"?>
<!DOCTYPE svg PUBLIC "-//W3C//DTD SVG 20010904//EN"
 "http://www.w3.org/TR/2001/REC-SVG-20010904/DTD/svg10.dtd">
<svg version="1.0" xmlns="http://www.w3.org/2000/svg"
 width="1024.000000pt" height="1024.000000pt" viewBox="0 0 1024.000000 1024.000000"
 preserveAspectRatio="xMidYMid meet">

<g transform="translate(0.000000,1024.000000) scale(0.100000,-0.100000)"
fill="#000000" stroke="none">
<path d="M3155 9720 c-217 -76 -500 -272 -729 -505 -93 -94 -299 -323 -351
-389 -16 -21 -34 -44 -40 -50 -55 -62 -256 -346 -268 -378 -6 -16 -22 -18
-119 -19 -62 -1 -122 -3 -133 -4 -145 -16 -136 -13 -197 -76 -45 -47 -73 -91
-127 -202 -102 -208 -154 -389 -137 -479 8 -43 64 -98 100 -98 74 0 239 78
369 174 70 52 81 57 105 48 330 -122 409 -139 480 -103 48 24 234 138 300 183
23 16 42 24 42 18 0 -6 -11 -61 -24 -123 -66 -299 -96 -446 -96 -463 0 -10
-18 -47 -40 -82 -43 -67 -53 -101 -119 -404 -35 -160 -42 -180 -67 -202 -153
-129 -163 -136 -168 -119 -3 10 -6 21 -6 25 -2 20 -54 148 -77 188 -100 173
-282 314 -474 366 -35 9 -105 18 -154 20 -225 6 -425 -79 -579 -248 -197 -215
-249 -558 -127 -833 41 -94 156 -230 240 -285 l22 -15 -27 -49 c-21 -38 -28
-66 -32 -125 -3 -68 -1 -82 25 -131 39 -76 122 -132 204 -138 l57 -4 7 -46
c10 -65 56 -151 118 -220 52 -59 53 -60 75 -178 12 -66 43 -225 69 -354 l46
-234 -24 -16 c-213 -139 -295 -359 -244 -661 20 -123 35 -170 81 -265 86 -173
228 -288 397 -319 32 -6 37 -11 37 -34 0 -32 48 -311 89 -521 26 -132 40 -208
76 -417 3 -17 16 -87 29 -155 63 -316 129 -676 156 -843 23 -147 34 -184 67
-238 29 -48 97 -104 142 -117 84 -24 197 17 241 87 57 89 58 133 14 408 -7 50
-20 133 -28 185 -8 52 -22 142 -31 200 -23 145 -64 417 -79 522 l-13 88 43 0
c48 0 173 22 254 46 156 45 430 179 593 290 106 73 129 86 109 61 -5 -6 -20
-41 -32 -77 -13 -36 -27 -69 -30 -75 -4 -5 -11 -21 -15 -35 -15 -48 -205 -427
-291 -580 -146 -259 -163 -297 -164 -363 0 -99 67 -194 205 -287 28 -18 52
-34 54 -36 2 -2 -18 -29 -44 -60 -80 -98 -102 -158 -91 -248 16 -128 100 -151
546 -149 333 1 626 30 699 68 47 24 68 59 100 164 17 57 31 109 31 116 0 10
51 11 223 7 330 -7 681 20 942 74 102 21 101 21 121 -39 54 -164 112 -284 161
-328 39 -36 170 -80 283 -94 126 -16 470 -23 550 -11 19 2 67 8 105 11 210 18
344 114 319 227 -12 58 -64 155 -118 220 l-53 64 46 18 c143 58 255 146 336
265 41 60 48 76 49 123 0 29 -3 65 -7 80 -12 43 -95 140 -295 343 -274 278
-384 397 -480 520 -73 94 -215 305 -209 311 1 1 106 -32 232 -75 406 -136 644
-169 776 -108 52 24 159 123 159 147 0 5 16 42 35 83 19 42 44 106 55 144 12
37 26 79 31 93 9 25 52 275 65 377 4 29 8 53 10 53 2 0 30 -20 62 -45 78 -61
161 -82 262 -67 86 13 133 45 162 110 26 59 20 118 -20 181 l-30 49 87 -1
c151 0 245 40 294 128 24 43 27 59 24 112 -5 102 -47 139 -212 191 l-89 29 49
18 c181 68 273 162 291 299 10 70 -3 113 -48 162 -79 85 -171 88 -408 11 -91
-30 -167 -53 -169 -51 -2 2 10 27 26 56 65 114 78 252 34 350 -34 74 -123 138
-191 138 -28 0 -105 -31 -136 -55 -17 -13 -55 -57 -84 -97 -116 -160 -184
-242 -267 -326 -38 -38 -47 -42 -75 -37 -63 12 -153 -12 -313 -83 -139 -62
-156 -68 -151 -49 45 158 50 194 50 367 0 144 -4 193 -22 277 -29 131 -67 241
-131 380 -69 151 -69 153 22 187 344 131 736 322 997 487 25 16 50 32 55 36 6
5 48 38 95 75 151 118 244 231 297 360 22 54 24 73 20 133 -8 107 -22 139 -90
212 -105 112 -323 240 -607 356 -179 73 -490 177 -615 206 -22 5 -76 19 -120
31 -44 13 -147 37 -229 54 l-149 31 -56 95 c-32 52 -72 122 -90 155 -39 71
-112 159 -155 187 -18 12 -56 62 -89 117 -103 170 -326 424 -502 571 -481 400
-1128 758 -1641 909 -183 54 -239 65 -339 67 -88 2 -110 -1 -180 -26z m2124
-1650 c189 -13 378 -56 487 -110 l81 -39 67 -117 c37 -64 66 -117 64 -119 -2
-1 -52 2 -113 7 -127 11 -687 14 -790 5 -38 -4 -92 -9 -120 -12 -49 -5 -228
-25 -273 -30 -140 -18 -454 -85 -662 -140 -219 -59 -686 -225 -874 -312 -67
-30 -129 -55 -139 -55 -10 1 -15 -4 -11 -10 5 -8 1 -9 -10 -5 -10 4 -15 3 -11
-3 3 -5 -27 -26 -67 -46 -93 -47 -278 -152 -298 -169 -39 -33 -182 -114 -194
-109 -8 3 -17 1 -21 -5 -3 -7 0 -8 9 -5 28 11 17 -3 -25 -30 l-41 -28 7 34
c18 91 67 273 79 297 17 31 96 109 97 96 0 -6 3 -3 7 7 9 22 128 120 253 209
132 94 350 221 367 214 7 -3 10 -1 7 5 -7 11 154 90 305 150 58 23 132 52 165
65 302 120 814 231 1190 258 108 8 335 6 464 -3z m793 -1223 c42 -66 97 -212
123 -327 23 -97 53 -275 53 -310 0 -8 5 -67 10 -130 6 -63 13 -160 16 -216 3
-55 13 -154 23 -220 47 -330 5 -546 -137 -697 -34 -37 -68 -67 -75 -67 -7 0
-32 29 -55 65 -51 78 -167 190 -235 227 -28 14 -86 34 -129 43 -44 9 -82 18
-86 20 -4 3 -10 22 -14 44 -12 76 -89 122 -203 120 -57 0 -112 -18 -126 -39
-6 -11 -4 -28 6 -53 l16 -37 71 1 c42 1 76 -4 85 -11 21 -17 9 -58 -26 -94
-23 -25 -38 -30 -88 -34 -54 -4 -72 0 -148 33 -138 59 -177 68 -268 61 -96 -7
-149 -22 -258 -76 -144 -70 -305 -216 -391 -354 l-31 -49 -85 6 c-208 15 -381
95 -517 239 -100 106 -146 199 -192 385 -57 227 -57 233 -33 299 33 87 58 235
77 449 9 105 18 209 21 231 l5 42 157 50 c86 28 173 55 192 60 19 6 87 26 150
45 99 30 375 105 505 137 420 102 1036 184 1500 198 l60 2 27 -43z m-4690 0
c182 -66 323 -209 377 -383 46 -146 34 -302 -33 -440 -44 -88 -59 -101 -121
-109 -28 -4 -97 -15 -155 -25 -160 -28 -176 -31 -162 -24 6 3 12 10 12 15 0 6
-4 7 -10 4 -5 -3 -10 1 -10 11 0 12 3 14 13 6 15 -13 29 -5 45 23 10 17 11 18
12 3 0 -20 1 -21 25 -12 13 6 14 9 3 16 -9 7 -3 8 17 4 17 -3 24 -3 18 0 -7 3
-13 10 -13 15 0 6 9 5 21 -2 15 -8 28 -8 45 -1 17 8 24 8 27 -1 3 -7 4 -2 4
10 -1 15 -5 19 -11 13 -17 -17 -27 -11 -16 10 9 16 8 18 -5 14 -8 -4 -15 -13
-15 -21 0 -11 -7 -14 -25 -11 -14 3 -28 2 -30 -2 -2 -4 -15 -7 -27 -6 -13 1
-29 -7 -36 -16 -7 -10 -18 -15 -24 -12 -7 4 -8 2 -4 -4 4 -7 2 -12 -3 -12 -6
0 -11 4 -11 9 0 5 -3 16 -6 25 -5 12 0 16 21 16 28 0 31 20 4 28 -11 3 -11 1
1 -8 12 -9 11 -11 -10 -9 -43 2 -56 0 -43 -9 13 -8 18 -31 14 -72 -2 -25 -2
-25 -11 -3 -6 14 -15 21 -23 17 -8 -3 -17 1 -20 9 -4 10 3 12 24 9 24 -4 28
-1 23 13 -5 12 -9 13 -14 5 -4 -7 -13 -9 -20 -5 -8 5 -9 10 -1 18 6 6 11 16
11 22 0 5 -4 4 -9 -3 -7 -11 -11 -11 -22 0 -8 8 -23 20 -34 27 -17 11 -18 12
-1 7 13 -5 17 -2 12 9 -3 8 -1 15 4 15 6 0 10 -7 10 -15 0 -11 7 -14 25 -11
14 3 25 1 25 -3 0 -3 9 -7 20 -8 11 -1 20 2 20 6 0 4 -6 8 -12 9 -29 2 -49 9
-60 20 -18 18 -37 15 -67 -11 -26 -21 -27 -25 -13 -45 17 -25 6 -29 -25 -7
-16 11 -22 12 -26 2 -2 -6 -7 -9 -11 -6 -10 10 5 40 17 32 6 -4 8 0 4 10 -4
10 -1 17 5 17 6 0 9 2 7 5 -7 6 -72 -18 -81 -30 -4 -5 -6 -15 -4 -22 3 -6 -1
-14 -9 -16 -19 -8 -27 4 -12 21 10 12 9 14 -2 10 -17 -5 -34 -58 -20 -58 5 0
9 4 9 8 0 4 9 8 21 9 17 2 18 -1 9 -13 -10 -11 -9 -14 4 -14 9 0 15 3 15 8 -1
4 -1 23 0 42 1 29 3 32 12 17 5 -9 7 -22 4 -28 -4 -5 -2 -16 5 -24 7 -8 7 -16
1 -19 -11 -7 -2 -46 11 -46 5 0 6 5 2 12 -5 7 -2 9 8 6 8 -4 15 -1 15 7 0 7
-6 11 -14 8 -7 -3 -13 0 -13 6 0 6 6 11 13 12 10 0 10 2 0 6 -24 9 -13 22 17
21 17 -1 30 -5 30 -9 0 -4 15 -5 34 -2 33 5 34 5 38 -36 2 -30 0 -41 -12 -45
-9 -2 -5 -4 8 -5 16 -1 22 5 22 19 0 11 5 20 11 20 6 0 9 -7 5 -15 -4 -10 1
-15 16 -15 18 0 18 -14 0 -15 -25 -2 -102 -20 -194 -46 l-107 -30 -54 26
c-162 76 -262 247 -274 465 -4 85 -1 119 15 182 53 207 224 379 422 425 86 20
241 10 322 -20z m-197 -878 c-3 -4 1 -10 7 -12 7 -3 3 -6 -10 -6 -13 -1 -20 3
-17 9 3 6 -1 13 -9 16 -9 3 -16 10 -16 15 0 5 11 4 25 -3 13 -6 22 -14 20 -19z
m1781 -320 c90 -57 134 -110 134 -163 0 -14 -5 -48 -11 -76 l-11 -50 -41 36
c-23 19 -74 51 -114 71 -66 32 -74 34 -107 23 -40 -13 -72 -51 -62 -75 3 -8
18 -20 33 -26 112 -44 178 -93 233 -174 25 -38 27 -44 19 -110 -4 -38 -8 -126
-8 -194 l-1 -124 -65 6 c-206 19 -375 203 -406 442 -14 107 -5 164 41 261 31
69 47 89 96 128 64 50 72 53 160 55 51 1 67 -4 110 -30z m4735 -739 c25 -34
30 -90 15 -150 -15 -59 -92 -188 -148 -250 -59 -65 -71 -86 -64 -115 9 -36 45
-47 108 -34 29 6 71 15 93 19 68 12 204 49 337 90 130 41 175 48 209 30 41
-23 6 -120 -60 -163 -56 -37 -191 -85 -283 -101 -106 -19 -133 -29 -154 -60
-21 -33 -12 -70 25 -105 28 -26 58 -37 281 -107 147 -47 172 -59 168 -86 -2
-12 -16 -30 -31 -42 -25 -18 -42 -21 -130 -20 -85 1 -117 6 -197 33 -110 36
-130 37 -159 13 -26 -20 -31 -85 -10 -124 8 -14 47 -61 87 -104 91 -97 107
-124 88 -150 -11 -14 -26 -18 -68 -18 -67 1 -99 18 -168 88 -66 68 -97 78
-188 64 -36 -6 -104 -8 -150 -6 l-83 4 -102 -51 c-56 -29 -124 -64 -151 -80
-39 -23 -50 -25 -57 -14 -11 15 -5 412 6 468 14 71 44 178 65 233 32 87 77
145 165 217 132 107 279 270 409 454 73 102 109 119 147 67z m-5756 -66 c33
-8 150 -17 263 -21 135 -4 202 -10 202 -17 1 -64 24 -186 46 -237 23 -57 83
-141 124 -177 49 -43 156 -104 215 -123 74 -24 219 -31 305 -16 l44 8 -65 -68
c-84 -87 -112 -145 -107 -216 2 -28 6 -58 9 -66 3 -10 -25 -26 -95 -53 l-98
-38 -152 74 c-83 40 -181 84 -217 97 -64 22 -66 24 -99 88 -85 163 -260 268
-379 226 -45 -15 -59 -11 -62 20 -2 26 -11 78 -29 170 -10 55 -24 134 -31 175
-6 41 -15 95 -20 120 -14 81 -15 80 39 74 26 -4 74 -13 107 -20z m111 -709
c67 -28 103 -88 149 -246 15 -52 36 -119 47 -149 16 -43 20 -80 21 -175 0
-138 -12 -213 -48 -288 -30 -65 -32 -93 -5 -102 31 -10 56 3 94 46 l34 40 -5
-108 c-7 -183 2 -167 -111 -197 -150 -40 -135 -47 -148 69 -11 89 -10 104 6
145 30 75 33 128 16 271 -9 74 -19 141 -21 150 -3 9 8 34 24 56 73 101 90 176
50 227 -26 34 -69 36 -69 4 0 -37 -55 -142 -83 -161 -31 -20 -76 -22 -100 -4
-14 10 -15 21 -6 86 7 52 7 98 -1 157 -9 71 -8 88 6 123 27 69 76 87 150 56z
m-329 -65 c39 -23 50 -60 43 -138 -5 -55 -6 -57 -35 -60 -56 -5 -180 -34 -210
-49 -68 -35 -84 -74 -44 -114 23 -23 48 -23 145 5 28 8 67 16 85 18 31 3 34 0
35 -23 1 -35 37 -93 66 -106 13 -6 36 -17 52 -24 l29 -14 -46 -7 c-57 -8 -249
-85 -277 -110 -25 -24 -26 -60 0 -83 22 -20 79 -16 153 12 178 65 257 40 257
-80 0 -66 -30 -103 -126 -153 -113 -60 -220 -76 -321 -50 -155 41 -259 173
-309 397 -48 212 -22 372 77 471 53 53 169 115 227 121 104 11 167 7 199 -13z
m2580 -1616 c-3 -3 -12 -4 -19 -1 -8 3 -5 6 6 6 11 1 17 -2 13 -5z m59 -12
c-10 -2 -22 0 -28 6 -6 6 0 7 19 4 21 -5 23 -7 9 -10z m82 1 c-10 -2 -26 -2
-35 0 -10 3 -2 5 17 5 19 0 27 -2 18 -5z m115 0 c-18 -2 -48 -2 -65 0 -18 2
-4 4 32 4 36 0 50 -2 33 -4z m164 0 c-20 -2 -52 -2 -70 0 -17 2 0 4 38 4 39 0
53 -2 32 -4z m-233 -105 c-3 -4 -11 -5 -19 -1 -21 7 -19 12 4 10 11 0 18 -5
15 -9z m-214 -28 c16 -5 2 -6 -35 -3 -33 3 -62 7 -64 9 -8 7 74 2 99 -6z m628
3 c-10 -2 -26 -2 -35 0 -10 3 -2 5 17 5 19 0 27 -2 18 -5z m-505 -10 c-7 -2
-21 -2 -30 0 -10 3 -4 5 12 5 17 0 24 -2 18 -5z m75 -8 c3 -3 -4 -5 -16 -5
-11 0 -23 4 -27 9 -6 10 33 6 43 -4z m299 8 c-20 -2 -52 -2 -70 0 -17 2 0 4
38 4 39 0 53 -2 32 -4z"/>
<path d="M3281 7614 c0 -11 3 -14 6 -6 3 7 2 16 -1 19 -3 4 -6 -2 -5 -13z"/>
<path d="M3281 7534 c0 -11 3 -14 6 -6 3 7 2 16 -1 19 -3 4 -6 -2 -5 -13z"/>
<path d="M3238 7463 c6 -2 18 -2 25 0 6 3 1 5 -13 5 -14 0 -19 -2 -12 -5z"/>
<path d="M2940 7451 c0 -6 4 -13 10 -16 6 -3 7 1 4 9 -7 18 -14 21 -14 7z"/>
<path d="M3009 7443 c-13 -16 -12 -17 4 -4 9 7 17 15 17 17 0 8 -8 3 -21 -13z"/>
<path d="M2980 7416 c0 -2 9 -6 20 -9 11 -3 18 -1 14 4 -5 9 -34 13 -34 5z"/>
<path d="M3285 7380 c-3 -5 -1 -10 4 -10 6 0 11 5 11 10 0 6 -2 10 -4 10 -3 0
-8 -4 -11 -10z"/>
<path d="M3246 7342 c-2 -4 4 -8 14 -8 10 0 16 4 14 8 -3 4 -9 8 -14 8 -5 0
-11 -4 -14 -8z"/>
<path d="M3150 7285 c0 -8 2 -15 4 -15 2 0 6 7 10 15 3 8 1 15 -4 15 -6 0 -10
-7 -10 -15z"/>
<path d="M3230 7290 c0 -5 5 -10 11 -10 5 0 7 5 4 10 -3 6 -8 10 -11 10 -2 0
-4 -4 -4 -10z"/>
<path d="M3100 7277 c0 -9 4 -18 9 -21 5 -4 8 1 7 9 -3 21 -16 31 -16 12z"/>
<path d="M3205 7260 c-3 -6 1 -7 9 -4 18 7 21 14 7 14 -6 0 -13 -4 -16 -10z"/>
<path d="M2646 7247 c3 -10 9 -15 12 -12 3 3 0 11 -7 18 -10 9 -11 8 -5 -6z"/>
<path d="M3170 7239 c0 -5 5 -7 10 -4 6 3 10 8 10 11 0 2 -4 4 -10 4 -5 0 -10
-5 -10 -11z"/>
<path d="M2678 7233 c7 -3 16 -2 19 1 4 3 -2 6 -13 5 -11 0 -14 -3 -6 -6z"/>
<path d="M3095 7230 c3 -5 8 -10 11 -10 2 0 4 5 4 10 0 6 -5 10 -11 10 -5 0
-7 -4 -4 -10z"/>
<path d="M2935 7220 c3 -5 8 -10 11 -10 2 0 4 5 4 10 0 6 -5 10 -11 10 -5 0
-7 -4 -4 -10z"/>
<path d="M3079 7193 c-13 -17 -13 -17 6 -3 11 8 22 16 24 17 2 2 0 3 -6 3 -6
0 -17 -8 -24 -17z"/>
<path d="M3030 7193 c5 -2 8 -9 4 -14 -3 -5 0 -9 6 -9 15 0 7 23 -8 26 -7 1
-8 0 -2 -3z"/>
<path d="M2547 7183 c-4 -3 -7 -11 -7 -17 0 -6 5 -5 12 2 6 6 9 14 7 17 -3 3
-9 2 -12 -2z"/>
<path d="M2833 7165 c0 -8 4 -12 9 -9 5 3 6 10 3 15 -9 13 -12 11 -12 -6z"/>
<path d="M2688 7153 c7 -3 16 -2 19 1 4 3 -2 6 -13 5 -11 0 -14 -3 -6 -6z"/>
<path d="M2888 7148 c5 -5 16 -8 23 -6 8 3 3 7 -10 11 -17 4 -21 3 -13 -5z"/>
<path d="M2753 7125 c0 -8 4 -12 9 -9 5 3 6 10 3 15 -9 13 -12 11 -12 -6z"/>
<path d="M2485 7120 c-11 -5 -17 -9 -13 -9 3 -1 13 -3 21 -6 8 -4 14 0 14 10
0 8 -1 15 -1 14 -1 0 -10 -4 -21 -9z"/>
<path d="M2825 7120 c-3 -5 -1 -10 4 -10 6 0 11 5 11 10 0 6 -2 10 -4 10 -3 0
-8 -4 -11 -10z"/>
<path d="M2550 7113 c1 -20 16 -31 30 -23 13 8 12 10 -3 10 -10 0 -15 5 -12
10 3 6 1 10 -4 10 -6 0 -11 -3 -11 -7z"/>
<path d="M2453 7087 c-20 -25 -24 -41 -5 -18 15 18 21 21 25 10 3 -8 6 -9 6
-2 1 18 -15 24 -26 10z"/>
<path d="M2655 7080 c3 -5 8 -10 11 -10 2 0 4 5 4 10 0 6 -5 10 -11 10 -5 0
-7 -4 -4 -10z"/>
<path d="M2845 7079 c-11 -17 1 -21 15 -4 8 9 8 15 2 15 -6 0 -14 -5 -17 -11z"/>
<path d="M2515 7060 c3 -5 8 -10 11 -10 2 0 4 5 4 10 0 6 -5 10 -11 10 -5 0
-7 -4 -4 -10z"/>
<path d="M2783 7055 c0 -8 4 -12 9 -9 5 3 6 10 3 15 -9 13 -12 11 -12 -6z"/>
<path d="M2476 7038 c3 -5 10 -6 15 -3 13 9 11 12 -6 12 -8 0 -12 -4 -9 -9z"/>
<path d="M2607 7025 c-16 -11 -16 -13 -2 -19 9 -3 13 -2 10 4 -9 14 8 12 25
-2 12 -11 12 -10 0 7 -8 11 -14 21 -15 22 0 1 -8 -4 -18 -12z"/>
<path d="M2430 7020 c-9 -6 -10 -10 -3 -10 6 0 15 5 18 10 8 12 4 12 -15 0z"/>
<path d="M2416 6992 c-3 -5 1 -9 9 -9 8 0 12 4 9 9 -3 4 -7 8 -9 8 -2 0 -6 -4
-9 -8z"/>
<path d="M2580 6996 c0 -2 7 -7 16 -10 8 -3 12 -2 9 4 -6 10 -25 14 -25 6z"/>
<path d="M2616 6972 c-2 -4 -1 -14 4 -22 7 -11 9 -9 7 8 -1 24 -3 26 -11 14z"/>
<path d="M2404 6949 c-3 -6 -1 -16 6 -22 10 -9 11 -9 5 2 -4 8 -2 17 6 22 9 6
10 9 2 9 -6 0 -15 -5 -19 -11z"/>
<path d="M2590 6937 c0 -10 -4 -16 -8 -13 -4 2 -14 1 -21 -3 -9 -6 -10 -11 -2
-15 6 -4 11 -2 11 4 0 6 4 9 8 6 15 -9 31 9 22 24 -8 13 -10 12 -10 -3z"/>
<path d="M2467 6919 c7 -7 15 -10 18 -7 3 3 -2 9 -12 12 -14 6 -15 5 -6 -5z"/>
<path d="M2525 6900 c-3 -5 -1 -10 4 -10 6 0 11 5 11 10 0 6 -2 10 -4 10 -3 0
-8 -4 -11 -10z"/>
<path d="M2437 6873 c-4 -6 0 -13 8 -17 8 -3 17 0 21 6 4 6 3 8 -4 4 -5 -3
-12 -1 -14 6 -3 8 -6 9 -11 1z"/>
<path d="M2485 6860 c3 -5 8 -10 11 -10 2 0 4 5 4 10 0 6 -5 10 -11 10 -5 0
-7 -4 -4 -10z"/>
<path d="M2410 6835 c0 -8 4 -15 8 -15 5 0 9 7 9 15 0 8 -4 15 -9 15 -4 0 -8
-7 -8 -15z"/>
<path d="M2363 6795 c-3 -9 -3 -18 -1 -21 3 -3 8 4 11 16 6 23 -1 27 -10 5z"/>
<path d="M5910 6522 c-41 -20 -348 -275 -358 -297 -22 -48 -15 -94 18 -125 58
-54 109 -49 205 20 28 20 84 56 125 80 110 66 163 112 184 158 18 40 18 43 1
87 -9 25 -28 53 -42 62 -26 18 -109 27 -133 15z"/>
<path d="M4000 6434 c-53 -23 -90 -69 -90 -110 0 -69 45 -119 138 -153 26 -10
140 -53 253 -96 168 -63 213 -76 240 -71 53 10 80 36 86 84 12 88 -31 128
-243 227 -76 36 -157 74 -179 85 -110 52 -149 59 -205 34z"/>
<path d="M5764 5990 c-39 -12 -96 -74 -124 -134 -47 -105 -42 -269 12 -375
139 -274 416 1 332 330 -36 139 -121 209 -220 179z"/>
<path d="M4275 5903 c-133 -70 -192 -282 -129 -468 23 -65 97 -141 149 -151
107 -20 212 76 246 223 15 68 12 189 -6 251 -37 125 -165 196 -260 145z"/>
<path d="M1398 6583 c-17 -18 -17 -19 12 -17 24 2 30 -2 30 -19 0 -16 -3 -18
-12 -9 -7 7 -17 12 -22 12 -6 -1 -1 -9 11 -19 12 -10 19 -22 15 -26 -4 -5 -1
-5 6 -1 7 4 12 2 13 -6 1 -7 2 -22 3 -33 0 -11 11 -21 26 -25 16 -4 24 -12 22
-23 -4 -21 14 -22 22 -1 8 22 8 24 -5 22 -6 -2 -14 3 -17 11 -3 10 0 12 12 8
9 -4 16 -1 16 4 0 6 -9 9 -20 6 -14 -3 -27 3 -41 21 -19 25 -19 27 -3 39 17
12 17 13 0 13 -14 0 -17 5 -13 21 5 17 2 20 -13 16 -12 -3 -20 1 -22 10 -2 13
-6 12 -20 -4z m82 -123 c0 -5 -4 -10 -10 -10 -5 0 -10 5 -10 10 0 6 5 10 10
10 6 0 10 -4 10 -10z"/>
<path d="M1463 6587 c2 -7 15 -12 28 -12 13 0 30 -4 36 -8 9 -6 11 -3 7 7 -3
9 -9 17 -13 17 -42 8 -62 6 -58 -4z"/>
<path d="M1496 6546 c3 -9 11 -16 16 -16 13 0 5 23 -10 28 -7 2 -10 -2 -6 -12z"/>
<path d="M1525 6530 c-10 -11 -13 -20 -7 -20 6 0 14 5 17 10 11 18 23 11 18
-10 -4 -16 -1 -20 20 -18 14 1 23 6 21 10 -3 4 -11 5 -19 1 -8 -3 -15 0 -15 6
0 6 4 11 10 11 5 0 7 7 4 15 -8 21 -28 19 -49 -5z"/>
<path d="M1398 6513 c21 -8 13 -23 -12 -23 -16 0 -26 -7 -29 -22 -8 -29 -1
-36 8 -9 5 18 29 27 58 22 4 -1 3 8 -3 19 -6 11 -16 20 -23 19 -9 0 -9 -2 1
-6z"/>
<path d="M1482 6499 c5 -15 58 -22 58 -7 0 5 -8 8 -17 6 -10 -1 -24 1 -32 6
-9 6 -12 5 -9 -5z"/>
<path d="M1545 6469 c-4 -6 0 -9 11 -7 11 2 20 -4 22 -14 2 -11 -3 -18 -12
-18 -19 0 -48 -29 -41 -41 7 -11 26 -12 23 -1 -2 4 2 8 7 9 6 0 8 -4 6 -10 -9
-33 -7 -57 5 -57 13 0 18 -12 15 -32 0 -4 8 -6 19 -5 19 1 19 2 -2 21 -18 17
-19 20 -4 28 9 5 16 17 15 26 0 14 -2 13 -9 -3 -5 -11 -9 -18 -9 -15 -1 3 -5
20 -11 38 -7 27 -6 33 4 29 10 -4 12 1 8 16 -9 41 -33 59 -47 36z m32 -121
c-3 -8 -6 -5 -6 6 -1 11 2 17 5 13 3 -3 4 -12 1 -19z"/>
<path d="M1604 6455 c10 -40 26 -78 31 -73 6 6 -25 98 -32 98 -3 0 -2 -11 1
-25z"/>
<path d="M1396 6461 c-4 -5 2 -12 11 -14 17 -4 17 -5 1 -6 -10 0 -18 -5 -18
-11 0 -5 7 -6 17 -3 11 4 14 3 9 -5 -4 -7 -1 -12 9 -12 9 0 13 -4 10 -10 -3
-5 -2 -10 3 -10 5 0 10 12 10 26 0 18 -3 22 -9 13 -7 -11 -9 -11 -9 2 0 21
-26 44 -34 30z"/>
<path d="M1341 6423 c-2 -18 10 -43 21 -43 5 0 6 5 3 10 -3 6 -1 10 4 10 6 0
11 5 11 11 0 8 -4 8 -14 0 -11 -10 -15 -8 -19 6 -3 10 -5 13 -6 6z"/>
<path d="M1475 6420 c3 -5 8 -10 11 -10 2 0 4 5 4 10 0 6 -5 10 -11 10 -5 0
-7 -4 -4 -10z"/>
<path d="M1395 6390 c3 -5 11 -10 16 -10 6 0 7 5 4 10 -3 6 -11 10 -16 10 -6
0 -7 -4 -4 -10z"/>
<path d="M1470 6385 c8 -11 10 -16 4 -12 -7 4 -17 0 -24 -8 -10 -12 -9 -15 4
-15 13 0 16 -5 11 -19 -5 -18 -3 -19 26 -11 18 5 36 13 40 17 12 12 -22 50
-51 58 -23 7 -24 7 -10 -10z m44 -21 c7 -17 0 -34 -13 -34 -5 0 -8 11 -8 25 0
28 12 33 21 9z"/>
<path d="M1331 6383 c-1 -7 -1 -16 -2 -20 0 -5 -21 -31 -45 -60 -33 -38 -39
-50 -24 -46 11 3 17 10 13 16 -4 6 0 8 11 4 10 -4 15 -3 11 3 -3 5 3 18 14 29
11 11 17 22 14 25 -3 3 9 12 28 20 27 12 29 15 12 16 -12 0 -24 6 -26 13 -4
10 -6 10 -6 0z"/>
<path d="M1401 6354 c12 -15 -7 -52 -33 -60 -11 -3 -15 -11 -11 -21 6 -14 7
-14 18 0 7 9 15 14 18 10 4 -3 2 -12 -4 -20 -9 -9 -8 -13 0 -13 6 0 11 -8 11
-17 0 -15 2 -16 10 -3 6 9 5 17 -3 22 -6 4 -8 10 -4 14 4 4 2 13 -4 20 -6 7
-6 14 -1 18 6 3 13 -6 17 -21 5 -20 8 -24 15 -13 5 8 6 18 3 23 -3 5 1 13 8
18 11 8 10 12 -6 25 -11 8 -19 19 -18 23 1 4 -5 8 -12 8 -11 0 -12 -4 -4 -13z
m34 -34 c-3 -5 -10 -10 -16 -10 -5 0 -9 5 -9 10 0 6 7 10 16 10 8 0 12 -4 9
-10z"/>
<path d="M1365 6340 c-3 -5 1 -10 10 -10 9 0 13 5 10 10 -3 6 -8 10 -10 10 -2
0 -7 -4 -10 -10z"/>
<path d="M1605 6331 c-5 -4 26 -30 37 -31 4 0 6 8 5 18 -1 16 -31 25 -42 13z"/>
<path d="M1502 6313 c-12 -2 -20 -9 -17 -14 4 -5 1 -9 -4 -9 -6 0 -11 -8 -12
-17 0 -16 -2 -15 -10 2 -8 18 -9 17 -6 -6 3 -18 -1 -26 -11 -25 -8 0 -17 -5
-19 -11 -3 -8 3 -13 14 -13 15 0 16 -2 3 -10 -11 -7 -11 -10 -2 -10 7 0 18
-13 23 -30 6 -16 14 -28 19 -25 10 6 4 53 -9 69 -9 11 -6 14 14 14 14 0 25 -4
25 -9 0 -5 5 -9 11 -9 8 0 8 4 0 14 -9 11 -8 15 5 20 24 9 26 8 19 -13 -3 -11
-1 -22 5 -26 7 -4 2 -15 -14 -30 -25 -23 -25 -38 0 -28 8 3 14 11 14 19 0 8 7
14 16 14 8 0 12 5 9 10 -3 6 1 13 9 16 16 6 12 24 -5 24 -6 0 -7 -4 -4 -10 3
-5 1 -10 -5 -10 -6 0 -10 8 -8 18 2 9 9 17 16 17 6 0 12 3 12 8 0 4 0 10 0 14
0 4 -5 2 -12 -5 -17 -17 -31 -15 -24 4 3 8 2 12 -4 9 -11 -7 -32 29 -23 39 3
3 4 5 2 5 -2 -1 -14 -4 -27 -6z m22 -55 c-3 -4 -10 -6 -15 -3 -5 4 -9 1 -9 -4
0 -6 -4 -11 -9 -11 -5 0 -8 8 -6 18 1 9 8 16 15 14 8 -2 10 4 6 15 -5 16 -5
16 9 -1 8 -10 12 -23 9 -28z"/>
<path d="M1544 6310 c2 -16 20 -14 24 2 3 10 2 10 -6 -1 -7 -9 -11 -10 -15 -2
-4 7 -5 8 -3 1z"/>
<path d="M1625 6280 c-16 -7 -17 -9 -3 -9 9 -1 20 4 23 9 7 11 7 11 -20 0z"/>
<path d="M1320 6278 c-2 -5 -3 -11 -4 -15 -3 -17 -18 -33 -26 -28 -4 3 -10 -1
-13 -9 -4 -10 0 -12 14 -9 10 3 19 9 19 14 0 5 8 9 18 9 10 0 19 7 19 15 0 8
-4 12 -8 9 -4 -2 -10 2 -12 8 -3 7 -6 10 -7 6z"/>
<path d="M1355 6230 c-4 -6 -10 -8 -15 -5 -5 3 -11 1 -15 -4 -3 -6 5 -8 19 -5
15 2 26 -1 30 -11 3 -10 -1 -15 -14 -15 -10 0 -22 -4 -25 -10 -10 -16 -28 -11
-21 6 3 8 2 13 -3 9 -5 -3 -12 1 -14 7 -3 8 -6 9 -6 2 -1 -7 -19 -10 -53 -7
-28 2 -49 0 -45 -3 9 -10 -12 -46 -24 -39 -5 4 -9 1 -9 -4 0 -16 8 -14 45 15
26 20 41 24 64 19 16 -3 32 -12 35 -20 5 -13 46 -17 46 -4 0 5 45 29 55 29 3
0 5 -4 5 -10 0 -5 -9 -10 -19 -10 -11 0 -23 -5 -27 -12 -5 -7 -2 -9 7 -6 10 4
15 -1 16 -13 1 -10 -2 -19 -8 -19 -5 0 -9 -5 -9 -10 0 -6 9 -5 21 2 17 11 23
11 26 0 3 -6 10 -9 16 -5 6 4 8 0 4 -10 -3 -8 1 -21 9 -27 8 -7 14 -18 14 -26
0 -7 5 -16 10 -19 7 -4 9 3 5 22 l-6 28 16 -25 c9 -14 14 -17 11 -7 -3 9 -1
17 4 17 6 0 10 5 10 11 0 6 -6 9 -14 6 -18 -7 -52 28 -37 38 6 3 11 1 11 -4 0
-6 14 -11 31 -11 19 0 28 -4 23 -11 -3 -6 0 -15 7 -20 21 -13 36 -10 19 4 -8
7 -15 19 -15 27 0 9 -8 14 -21 12 -11 -1 -33 4 -49 12 -23 12 -31 13 -37 3 -5
-8 -8 -5 -8 8 0 17 -2 17 -10 5 -8 -13 -10 -12 -10 3 0 9 5 17 10 17 19 0 10
35 -12 45 -13 6 -22 16 -20 23 3 15 -14 16 -23 2z m110 -150 c3 -5 2 -10 -4
-10 -5 0 -13 5 -16 10 -3 6 -2 10 4 10 5 0 13 -4 16 -10z"/>
<path d="M1215 6220 c3 -5 8 -10 11 -10 2 0 4 5 4 10 0 6 -5 10 -11 10 -5 0
-7 -4 -4 -10z"/>
<path d="M1175 6210 c-3 -6 1 -7 9 -4 18 7 21 14 7 14 -6 0 -13 -4 -16 -10z"/>
<path d="M1500 6185 c-8 -9 -8 -15 -2 -15 12 0 26 19 19 26 -2 2 -10 -2 -17
-11z"/>
<path d="M1125 6180 c-4 -6 6 -10 22 -10 22 0 25 2 13 10 -19 12 -27 12 -35 0z"/>
<path d="M796 6164 c-9 -8 -16 -18 -16 -22 0 -3 5 -1 12 6 19 19 47 15 41 -7
-3 -11 2 -21 13 -25 14 -5 15 -4 4 9 -19 23 -3 31 20 10 11 -10 17 -23 13 -29
-4 -6 1 -5 10 3 10 8 20 11 24 8 3 -4 12 -2 19 3 6 6 17 9 24 8 7 -2 15 3 17
10 4 9 -1 10 -21 2 -17 -6 -26 -6 -26 0 0 6 -5 10 -11 10 -5 0 -7 -4 -4 -10 3
-5 1 -10 -4 -10 -6 0 -11 7 -11 15 0 9 -10 15 -26 15 -14 0 -34 4 -44 10 -14
7 -23 6 -34 -6z m94 -24 c0 -5 -2 -10 -4 -10 -3 0 -8 5 -11 10 -3 6 -1 10 4
10 6 0 11 -4 11 -10z"/>
<path d="M1235 6170 c-3 -6 1 -7 9 -4 18 7 21 14 7 14 -6 0 -13 -4 -16 -10z"/>
<path d="M1271 6163 c-1 -6 3 -14 9 -18 5 -3 7 -12 3 -20 -3 -8 0 -15 6 -15 6
0 11 7 11 16 0 9 5 12 12 8 7 -4 8 -3 4 4 -4 7 -13 12 -21 12 -7 0 -16 6 -18
13 -4 9 -6 9 -6 0z"/>
<path d="M1604 6148 c-10 -12 -13 -18 -7 -14 9 5 11 2 7 -7 -3 -8 -12 -14 -21
-13 -9 0 -18 -6 -21 -14 -5 -13 -3 -13 11 -1 15 12 17 11 17 -5 0 -17 1 -17
15 2 12 19 28 74 21 74 -2 0 -11 -10 -22 -22z"/>
<path d="M1030 6152 l-35 -6 40 -6 40 -5 -34 -19 c-29 -16 -33 -16 -28 -2 7
17 -8 22 -18 6 -3 -5 3 -15 15 -22 11 -7 20 -19 20 -26 0 -7 5 -10 10 -7 8 5
8 11 1 19 -11 13 -5 26 11 26 5 0 6 -6 3 -12 -4 -7 0 -5 8 5 8 9 19 17 25 17
5 0 12 7 16 15 3 8 1 15 -3 15 -5 0 -15 2 -23 3 -7 2 -29 1 -48 -1z"/>
<path d="M1132 6151 c-11 -7 -11 -9 2 -14 10 -4 16 -1 16 8 0 17 -1 17 -18 6z"/>
<path d="M1210 6141 c0 -6 -10 -12 -22 -12 -17 -1 -18 -3 -6 -6 23 -6 55 12
39 21 -6 4 -11 2 -11 -3z"/>
<path d="M1247 6143 c-4 -3 -1 -13 6 -21 10 -13 8 -14 -13 -7 -22 7 -23 6 -12
-8 11 -13 10 -17 -7 -27 -12 -6 -21 -7 -21 -3 0 4 -4 4 -8 -2 -4 -5 -16 -17
-26 -25 -18 -14 -19 -13 -13 3 4 12 1 17 -11 17 -15 0 -15 2 -2 10 13 9 13 11
0 20 -26 17 -52 9 -58 -18 -2 -9 4 -12 17 -7 17 5 37 -16 33 -37 -2 -7 14 -5
47 9 18 7 32 6 50 -4 34 -17 44 -16 38 2 -7 17 11 31 36 27 9 -2 20 4 23 12 7
18 -6 42 -15 29 -12 -16 -61 -43 -61 -33 0 5 5 10 10 10 6 0 9 11 7 25 -3 28
-11 38 -20 28z m-2 -83 c3 -5 2 -10 -4 -10 -5 0 -13 5 -16 10 -3 6 -2 10 4 10
5 0 13 -4 16 -10z"/>
<path d="M1349 6131 c9 -6 10 -11 2 -15 -6 -4 -11 -15 -11 -26 0 -10 -14 -27
-31 -38 l-31 -19 33 -21 c39 -24 49 -21 48 16 -2 24 -2 24 -6 5 -5 -27 -28
-30 -37 -7 -5 12 -2 15 9 10 10 -4 14 -2 9 5 -6 11 12 29 29 29 4 0 7 -13 7
-30 0 -16 5 -30 10 -30 6 0 10 7 10 16 0 8 5 12 10 9 6 -3 10 -2 10 4 0 6 7 8
16 4 14 -5 13 -8 -6 -18 -23 -12 -22 -12 9 -17 46 -7 37 21 -14 47 -39 18 -39
19 -15 26 20 5 22 8 9 13 -9 4 -22 6 -30 4 -9 -2 -13 5 -12 20 2 15 -3 22 -15
22 -13 0 -14 -2 -3 -9z"/>
<path d="M1490 6130 c0 -5 5 -10 11 -10 5 0 7 5 4 10 -3 6 -8 10 -11 10 -2 0
-4 -4 -4 -10z"/>
<path d="M815 6111 c3 -5 1 -12 -5 -16 -13 -8 -13 -25 0 -25 6 0 10 6 10 14 0
8 5 16 12 18 7 3 5 7 -6 11 -9 4 -15 3 -11 -2z"/>
<path d="M949 6116 c-6 -4 -3 -53 3 -50 4 3 8 0 8 -5 0 -6 8 -11 17 -11 15 0
14 2 -3 15 -18 14 -18 15 9 11 16 -3 25 -1 22 5 -4 5 -10 7 -14 5 -4 -3 -13
-1 -21 5 -10 6 -11 9 -2 9 6 0 12 4 12 8 0 7 -24 13 -31 8z"/>
<path d="M1157 6102 c3 -12 9 -25 14 -28 14 -8 11 10 -6 32 -13 18 -14 18 -8
-4z"/>
<path d="M850 6089 c0 -5 5 -7 10 -4 6 3 10 8 10 11 0 2 -4 4 -10 4 -5 0 -10
-5 -10 -11z"/>
<path d="M1195 6090 c4 -6 11 -8 16 -5 14 9 11 15 -7 15 -8 0 -12 -5 -9 -10z"/>
<path d="M915 6070 c3 -5 8 -10 11 -10 2 0 4 5 4 10 0 6 -5 10 -11 10 -5 0 -7
-4 -4 -10z"/>
<path d="M868 6063 c7 -3 16 -2 19 1 4 3 -2 6 -13 5 -11 0 -14 -3 -6 -6z"/>
<path d="M1570 6055 c-7 -9 -11 -18 -8 -20 3 -3 11 1 18 10 7 9 11 18 8 20 -3
3 -11 -1 -18 -10z"/>
<path d="M837 6046 c-4 -10 1 -12 14 -9 23 6 24 9 5 16 -8 3 -17 0 -19 -7z"/>
<path d="M995 6036 c-9 -11 -13 -15 -10 -8 7 14 -11 17 -20 2 -3 -5 -15 -10
-25 -10 -14 0 -18 5 -14 18 5 14 4 15 -5 2 -18 -24 -13 -28 38 -32 27 -1 49
-1 49 2 -2 25 3 29 28 20 32 -12 34 -12 34 1 0 5 -4 7 -10 4 -5 -3 -10 -2 -10
3 0 21 -39 20 -55 -2z"/>
<path d="M1515 6050 c3 -5 11 -10 16 -10 6 0 7 5 4 10 -3 6 -11 10 -16 10 -6
0 -7 -4 -4 -10z"/>
<path d="M886 6038 c3 -5 10 -6 15 -3 13 9 11 12 -6 12 -8 0 -12 -4 -9 -9z"/>
<path d="M850 6021 c0 -17 18 -21 24 -6 3 9 0 15 -9 15 -8 0 -15 -4 -15 -9z"/>
<path d="M1537 6019 c7 -7 15 -10 18 -7 3 3 -2 9 -12 12 -14 6 -15 5 -6 -5z"/>
<path d="M1506 5983 c9 -38 14 -42 14 -10 0 14 -5 29 -10 32 -7 4 -8 -3 -4
-22z"/>
<path d="M1373 5985 c0 -7 6 -11 14 -8 7 3 13 6 13 8 0 2 -6 5 -13 8 -8 3 -14
-1 -14 -8z"/>
<path d="M1420 5990 c-8 -5 -11 -12 -7 -16 4 -4 13 -2 19 4 15 15 7 24 -12 12z"/>
<path d="M885 5980 c3 -5 11 -10 16 -10 6 0 7 5 4 10 -3 6 -11 10 -16 10 -6 0
-7 -4 -4 -10z"/>
<path d="M922 5966 c2 -1 10 -7 19 -14 13 -10 18 -10 22 0 3 8 -5 14 -20 14
-13 1 -23 1 -21 0z"/>
<path d="M925 5930 c10 -11 22 -20 27 -20 4 0 -1 9 -12 20 -11 11 -23 20 -27
20 -3 0 2 -9 12 -20z"/>
<path d="M1150 5913 c0 -11 -5 -11 -20 -3 -16 8 -18 8 -14 -4 5 -14 32 -14 54
-1 15 10 12 -2 -6 -20 -9 -9 -14 -19 -10 -22 8 -9 35 28 36 49 0 11 -7 16 -20
15 -11 -1 -20 -7 -20 -14z"/>
<path d="M1347 5898 c2 -5 -6 -8 -18 -8 -12 0 -20 -3 -16 -6 8 -8 77 5 77 14
0 4 -11 7 -24 7 -13 0 -22 -3 -19 -7z"/>
<path d="M1020 5890 c0 -5 5 -10 11 -10 5 0 7 5 4 10 -3 6 -8 10 -11 10 -2 0
-4 -4 -4 -10z"/>
<path d="M1045 5854 c13 -9 23 -10 36 -3 25 13 25 14 -17 15 -32 1 -34 -1 -19
-12z"/>
<path d="M1089 5839 c-10 -6 -4 -9 19 -9 17 0 32 2 32 4 0 9 -39 13 -51 5z"/>
<path d="M7362 4267 c-8 -9 -9 -36 -5 -80 7 -77 -5 -131 -53 -240 -49 -112
-45 -127 30 -127 42 0 66 26 107 115 41 89 49 193 21 270 -9 28 -23 49 -30 48
-6 -2 -11 3 -9 10 3 17 -47 21 -61 4z"/>
<path d="M7557 9614 c-3 -2 -149 -12 -277 -19 -245 -13 -467 -42 -539 -71 -49
-20 -103 -79 -119 -131 -12 -42 -8 -70 31 -178 169 -467 214 -602 281 -830 35
-121 72 -251 81 -290 31 -128 57 -170 127 -206 54 -28 102 -24 277 22 335 87
493 125 632 149 158 27 215 57 245 127 18 41 18 140 0 195 -7 24 -23 88 -36
143 -12 55 -38 159 -57 230 -63 232 -123 449 -138 495 -50 155 -80 239 -96
265 -23 38 -81 84 -122 96 -25 8 -281 10 -290 3z m272 -173 c16 -16 42 -88
110 -311 77 -253 200 -738 208 -822 6 -69 5 -70 -132 -93 -55 -9 -172 -35
-260 -57 -88 -22 -185 -46 -215 -53 -30 -7 -108 -27 -174 -44 -65 -17 -127
-31 -137 -31 -26 0 -44 33 -68 125 -38 151 -53 200 -112 393 -33 106 -74 230
-91 275 -16 45 -36 102 -43 127 -7 25 -33 97 -58 161 -25 64 -53 144 -62 178
-20 71 -15 82 43 99 46 14 257 39 397 46 273 16 320 19 324 22 2 2 60 4 128 4
106 0 125 -2 142 -19z"/>
<path d="M7605 9143 c-50 -13 -115 -88 -115 -133 0 -19 -3 -18 -42 11 -92 66
-174 78 -228 33 -51 -44 -69 -90 -67 -175 2 -55 9 -87 27 -124 28 -58 137
-170 230 -237 73 -52 217 -138 230 -138 22 0 145 246 183 365 42 132 28 245
-39 323 -56 66 -116 91 -179 75z"/>
<path d="M8665 8661 c-32 -13 -76 -63 -95 -106 -9 -22 -31 -87 -49 -145 -18
-58 -40 -127 -50 -155 -11 -27 -33 -90 -49 -140 -44 -129 -110 -313 -127 -349
-7 -17 -35 -85 -60 -151 -26 -66 -55 -139 -66 -162 -68 -153 -30 -231 166
-334 180 -94 437 -240 578 -327 119 -73 146 -86 192 -90 43 -3 61 0 89 17 71
45 108 101 186 286 23 55 50 118 60 140 9 22 34 87 54 145 21 58 52 143 71
190 39 100 84 232 120 350 57 189 42 261 -73 347 -128 95 -496 319 -734 446
-73 40 -95 47 -140 46 -29 0 -62 -4 -73 -8z m205 -209 c69 -38 148 -83 175
-100 28 -17 79 -48 115 -68 87 -50 306 -191 353 -227 50 -39 57 -60 41 -127
-43 -183 -313 -897 -387 -1023 -39 -65 -61 -62 -187 23 -99 67 -427 255 -540
308 -87 42 -127 67 -139 89 -10 20 6 76 58 191 86 193 213 545 316 877 25 81
47 125 64 125 3 0 62 -31 131 -68z"/>
<path d="M9015 8027 c-114 -51 -230 -114 -266 -145 -22 -19 -51 -55 -67 -80
-23 -40 -27 -59 -27 -119 0 -66 2 -74 30 -103 35 -37 85 -60 128 -60 l31 0
-58 -59 c-43 -43 -56 -64 -52 -77 4 -11 41 -39 83 -63 97 -55 105 -51 115 54
4 43 9 80 12 82 2 3 23 -14 45 -36 49 -49 95 -55 147 -19 75 52 104 165 78
303 -9 47 -95 297 -110 323 -18 27 -26 27 -89 -1z"/>
<path d="M8458 6676 c-66 -24 -82 -41 -153 -167 -38 -68 -90 -158 -116 -199
-25 -41 -61 -100 -79 -130 -18 -30 -67 -106 -109 -168 -42 -62 -95 -140 -118
-175 -23 -34 -66 -96 -96 -137 -150 -207 -145 -293 28 -418 44 -32 247 -195
300 -241 372 -322 350 -306 426 -306 92 0 115 20 299 260 41 53 89 119 105
145 17 27 64 99 106 162 81 121 171 264 211 338 14 25 39 68 55 95 40 68 73
158 73 201 0 42 -23 101 -53 132 -12 13 -87 79 -167 145 -80 67 -147 124 -150
127 -29 30 -273 218 -345 267 -113 76 -158 90 -217 69z m232 -269 c172 -130
475 -382 518 -431 36 -41 36 -64 -3 -126 -12 -19 -45 -78 -74 -130 -73 -133
-246 -401 -369 -571 -26 -36 -63 -89 -83 -118 -46 -66 -117 -141 -132 -141
-26 1 -60 27 -226 175 -80 71 -276 233 -431 357 -30 24 -56 51 -58 59 -1 8 37
71 86 139 248 350 428 634 522 819 21 44 45 81 52 84 25 8 65 -15 198 -116z"/>
<path d="M8701 6029 c-36 -16 -115 -45 -175 -64 -61 -19 -139 -47 -173 -61
l-63 -26 0 -53 c0 -44 3 -54 20 -58 11 -3 20 -13 20 -22 0 -9 -5 -13 -10 -10
-6 4 -7 11 -4 17 4 6 1 8 -7 6 -8 -3 -13 -10 -12 -16 1 -5 8 -92 15 -191 7
-114 16 -181 22 -181 11 0 213 69 367 125 l77 28 1 164 c1 122 -1 169 -11 181
-10 12 -10 14 0 8 9 -5 12 11 11 71 -1 116 -1 117 -78 82z m39 -3 c0 -3 -4 -8
-10 -11 -5 -3 -10 -1 -10 4 0 6 5 11 10 11 6 0 10 -2 10 -4z m20 -16 c0 -5 -5
-10 -11 -10 -5 0 -7 5 -4 10 3 6 8 10 11 10 2 0 4 -4 4 -10z m-36 -29 c2 -3
-6 -6 -18 -6 -13 0 -23 5 -23 11 0 11 34 7 41 -5z m36 -17 c0 -8 -5 -12 -10
-9 -6 4 -8 11 -5 16 9 14 15 11 15 -7z m-149 -21 c13 -16 12 -17 -3 -4 -10 7
-18 15 -18 17 0 8 8 3 21 -13z m-191 -40 c-8 -3 -18 -10 -21 -16 -4 -5 -13 -6
-20 -2 -9 6 -8 10 7 16 10 4 26 8 34 8 13 -1 13 -1 0 -6z m155 -3 c3 -5 1 -10
-4 -10 -6 0 -11 5 -11 10 0 6 2 10 4 10 3 0 8 -4 11 -10z m-245 -29 c0 -5 -6
-14 -14 -20 -12 -10 -14 -9 -11 6 2 10 4 19 4 21 2 6 21 1 21 -7z m87 -8 c-4
-3 -1 -13 6 -22 10 -14 10 -14 -4 -4 -9 7 -20 9 -25 5 -4 -4 -2 1 5 11 7 9 16
17 19 17 3 0 2 -3 -1 -7z m-67 -17 c0 -2 -8 -10 -17 -17 -16 -13 -17 -12 -4 4
13 16 21 21 21 13z m361 -39 c-10 -9 -11 -8 -5 6 3 10 9 15 12 12 3 -3 0 -11
-7 -18z m-216 -57 c3 -5 1 -10 -4 -10 -6 0 -11 5 -11 10 0 6 2 10 4 10 3 0 8
-4 11 -10z m105 0 c0 -5 -2 -10 -4 -10 -3 0 -8 5 -11 10 -3 6 -1 10 4 10 6 0
11 -4 11 -10z m23 -15 c-7 -21 -12 -19 -10 4 0 11 5 18 9 15 4 -3 5 -11 1 -19z
m132 15 c-3 -5 -11 -10 -16 -10 -6 0 -7 5 -4 10 3 6 11 10 16 10 6 0 7 -4 4
-10z m-180 -20 c3 -5 2 -10 -4 -10 -5 0 -13 5 -16 10 -3 6 -2 10 4 10 5 0 13
-4 16 -10z m-61 -12 c-3 -4 -9 -8 -15 -8 -5 0 -9 4 -9 8 0 5 7 9 15 9 8 0 12
-4 9 -9z m254 -74 c-1 -13 -6 -24 -10 -24 -5 0 -5 12 -2 27 6 21 4 25 -9 20
-11 -4 -14 -2 -10 9 8 22 33 -3 31 -32z m-308 -1 c0 -19 -13 -9 -16 12 -1 8 2
13 7 9 5 -3 9 -12 9 -21z m225 17 c-27 -12 -43 -12 -25 0 8 5 22 9 30 9 10 0
8 -3 -5 -9z m-335 -23 c11 -4 10 -6 -5 -6 -17 -1 -18 -3 -5 -12 12 -8 12 -10
1 -7 -8 2 -16 15 -18 29 -2 13 0 19 4 13 5 -6 15 -14 23 -17z m150 -27 c0 -5
-2 -10 -4 -10 -3 0 -8 5 -11 10 -3 6 -1 10 4 10 6 0 11 -4 11 -10z m150 -10
c0 -5 -2 -10 -4 -10 -3 0 -8 5 -11 10 -3 6 -1 10 4 10 6 0 11 -4 11 -10z m95
-20 c3 -5 1 -10 -4 -10 -6 0 -11 5 -11 10 0 6 2 10 4 10 3 0 8 -4 11 -10z
m-91 -29 c-2 -3 -12 3 -22 13 -16 17 -16 18 5 5 12 -7 20 -15 17 -18z m-254
-3 c0 -6 -3 -8 -7 -5 -3 4 -13 1 -21 -6 -13 -11 -14 -9 -2 10 14 22 30 22 30
1z m318 8 c-2 -1 -12 -8 -22 -16 -18 -14 -19 -14 -7 8 7 12 17 20 22 16 6 -3
9 -7 7 -8z m-366 -3 c-6 -2 -10 -8 -8 -12 3 -4 -1 -8 -8 -8 -8 0 -12 6 -9 14
3 7 13 13 22 12 10 0 11 -2 3 -6z m408 -17 c0 -2 -7 -7 -16 -10 -8 -3 -12 -2
-9 4 6 10 25 14 25 6z m-145 -16 c-3 -5 -12 -10 -18 -10 -7 0 -6 4 3 10 19 12
23 12 15 0z m-35 -20 c0 -5 -7 -7 -15 -4 -8 4 -15 8 -15 10 0 2 7 4 15 4 8 0
15 -4 15 -10z m-210 -12 c0 -4 -4 -8 -9 -8 -6 0 -12 4 -15 8 -3 5 1 9 9 9 8 0
15 -4 15 -9z m58 -23 c-3 -3 -9 2 -12 12 -6 14 -5 15 5 6 7 -7 10 -15 7 -18z
m137 6 c3 -5 1 -12 -5 -16 -5 -3 -10 1 -10 9 0 18 6 21 15 7z m-75 -15 c0 -2
-11 -6 -25 -8 -13 -3 -22 -1 -19 3 5 9 44 13 44 5z m-70 -47 c0 -5 -4 -9 -8
-9 -5 0 -9 7 -9 15 0 8 4 12 9 9 4 -3 8 -9 8 -15z"/>
</g>
</svg>
